<svg version="1.2" xmlns="http://www.w3.org/2000/svg" viewBox="0 0 1684 1191" width="200" height="141">
	<title>logo-pdf</title>
	<defs>
		<clipPath clipPathUnits="userSpaceOnUse" id="cp1">
			<path d="m0 0h1684v1191h-1684z"/>
		</clipPath>
	</defs>
	<style>
		tspan { white-space:pre } 
		.s0 { fill: #636832 } 
		.s1 { fill: #999e63 } 
		.s2 { fill: #626832 } 
	</style>
	<g id="Page 1" clip-path="url(#cp1)">
		<path id="Path 2" class="s0" d="m676.2 153c0 0-9.1 58.2 61.6 129.3 0 0-56-30.7-92.3 4.1 0 0 30.7-15.5 60.2-2.6 0 0 32.5 12.3 41 49.7 0 0 8.8 47.1-4.6 63.5 0 0-17.3 36.9-87 33.5 0 0 57.3 18.7 110.3-6.5 0 0 12.2 21.2 70.9 27.8 0 0-38.6-14.5-46.2-59.9 0 0-3.7-27.8-4.3-41.9 0 0 5.7-59.8-61.2-113.9 0 0-34.4-27.6-48.4-83.1zm-21 115.5c0 0 22.6 10.4 21.4-14.9 0 0-3.8-23.8-44.3-32 0 0 2.3 36.5 22.9 46.9zm-27.3 50.3c0 0 14.9-20-10.1-24 0 0-24.1-1.4-40.5 36.5 0 0 36.1 5.4 50.6-12.5zm48.3-20.5c0 0-4.9-24.5-24.7-8.6 0 0-17 17 0.2 54.6 0 0 28.1-23.3 24.5-46zm-49.1-8.5c0 0 24.9 1.1 14.2-21.9 0 0-12.4-20.6-53-12.9 0 0 15.8 32.9 38.8 34.8zm33.2-163.9c0 0 12.3 21.7 26.1 0.4 0 0 10.8-21.5-17.3-51.8 0 0-19.4 30.9-8.8 51.4zm-4.6 45.7c0 0 24.5-5.1 8.3-24.7 0 0-17.1-16.9-54.6 0.7 0 0 23.6 27.9 46.3 24zm31.7-31.5c0 0-10.6 22.6 14.8 21.5 0 0 23.8-3.6 32.2-44.1 0 0-36.5 2.1-47 22.6zm13.4 36.8c0 0-13 21.3 12.3 23 0 0 24.1-0.8 37-40.1 0 0-36.5-2.1-49.3 17.1z"/>
		<path id="Path 3" class="s1" d="m931.5 178c0 0-16.8 18.6 7.9 24.9 0 0 23.8 3.5 43.6-32.8 0 0-35.5-8.6-51.5 7.9zm80.1 153.5c0 0-24.7-3.2-16 20.6 0 0 10.6 21.6 51.7 17.4 0 0-13-34.1-35.7-38zm-33.3 11.5c0 0-18.3-17.1-25 7.4 0 0-3.9 23.8 32.1 44.2 0 0 9.2-35.3-7.1-51.6zm9.5-109c0 0-5.9 24.2 18.8 18.1 0 0 22.6-8.2 22.8-49.5 0 0-35.3 9.2-41.6 31.4zm3.8 65.5c0 0 1.1 24.9 23.1 12.2 0 0 19.4-14.1 8.2-53.9 0 0-31.4 18.7-31.3 41.7zm52.8 2c0 0-21 13.6 1.2 26 0 0 22.1 9.6 50.6-20.4 0 0-32.1-17.5-51.8-5.6zm-151.7-60.1c0 0-24.8-3.1-15.9 20.7 0 0 10.7 21.5 51.8 17.1 0 0-13.2-34.1-35.9-37.8zm56.3 53.8c0 0 4 24.7 24.3 9.4 0 0 17.6-16.4 1.7-54.6 0 0-28.9 22.4-26 45.2zm-105.6-128.1c0 0-24.7-3.7-16.4 20.3 0 0 10.2 21.8 51.4 18.4 0 0-12.4-34.4-35-38.7zm42.7 12.7c0 0-6.3 24.2 18.5 18.5 0 0 22.7-7.8 23.7-49.2 0 0-35.5 8.7-42.2 30.7zm28 29.6c0 0-24.8 2.8-10.5 23.9 0 0 15.5 18.3 54.4 4.2 0 0-20.9-29.9-43.9-28.1zm-64-103.6c0 0-4.8 24.5 19.6 17.2 0 0 22.2-9.2 20.4-50.6 0 0-34.8 11-40 33.4zm5.5 27.3c0 0-21.3 13 0.5 26 0 0 21.8 10.2 51.2-18.9 0 0-31.6-18.4-51.7-7.1zm-46.2-8.5c0 0 16.8 18.5 25.5-5.4 0 0 5.9-23.4-28.3-46.7 0 0-12.1 34.5 2.8 52.1zm-19.5 36.9c0 0 22.5 10.7 21.5-14.7 0 0-3.5-23.8-44-32.3 0 0 2 36.4 22.5 47zm-22.2 83.8c0 0 24.5 5.2 17.6-19.3 0 0-8.8-22.3-50.2-21.4 0 0 10.3 35.1 32.6 40.7z"/>
		<path id="Path 4" class="s0" d="m666.2 208.8c0 0 22.1-11.7 1.1-26.1 0 0-21.2-11.4-52.2 15.9 0 0 30.4 20.3 51.1 10.2z"/>
		<path id="Path 5" class="s1" d="m845.9 133.3c0 0-43.4 25.8-54 88.3 0 0-5.3 36.3 5.3 66 10.5 29.6 15.5 103.4 16.2 111.9 0.8 8.5 25.9 49 62.2 47.2 0 0-11.3-8.1-12.8-14.1-1.6-6.1 1.1-12.3 17.4-8.3 16.2 3.9 26 21.7 88.6 6.4 0 0-86.9-5.7-89.1-32.9 0 0 0.8-39.5 3.3-52.4 0 0 5.5-41.6 56.1-17.6 0 0 35.6 13.6 89.5-7.3 0 0-53 5.1-93.1-11.6 0 0-54.4-29.5-67.3 0.4 0 0-20.2-17-2.6-61.6 0 0 24.3-39.2 52.9-48.9 0 0-68.6 24.1-85.9 79.1 0 0-50.7-74.8 13.3-144.6z"/>
		<path id="Path 6" fill-rule="evenodd" class="s0" d="m125 619.3q20.8 7.3 29.8 17.1 9 9.9 9 26.9 0 24.2-23.7 41.4h-2.5q-2.1 2.2-4.3 3.6-2.2 1.4-2.6 1.4-0.6 0-1.1-1 0 0.6-2.7 2-2.8 1.4-10.9 2.7-8.1 1.3-8.4 1.3-1.9 0-2.6-0.2l-2.6 2.5-3.4-1.1q-1.5 1.1-3.3 1.1-1.7 0-2.4-0.4-3 0.3-10.3 0.4-7.4 0-11 0.5 0.7-1.4 0.7-4.4l-0.2-4.1 1.5-12.9q0.8-6.4 1.1-13 0.3-6.5 0.4-12.9 0.1-6.4 0.1-14.6v-8.2l1.2-46.4q0-21.8-1.9-31.9-2-10-2-12.4 0-6.9 9.2-6.9l2.3-2.4q3 2 6.8 3.1 21.3 1.2 33.2 4 11.9 2.8 17.9 10.6 6 7.8 6 20.2v1.4q-3.6 17.7-23.3 32.6zm-16.6 89.6q1.2 0.2 3.4 0.2 7 0 17.1-6.1 10.2-6.1 16-16.7 5.9-10.6 5.9-22 0-13.8-11.7-24.2-11.7-10.3-31.8-11.5-1 0.6-3.4 2.6-3.1-3.4-6.9-3.4-7.5 0-7.5 12l0.3 9.4q0 2.9-0.7 7.5-0.7 4.6-0.7 6.3 0 2 0.4 6.3 0.5 4.3 0.5 6.7 0 3-0.5 8.6-0.4 5.6-0.4 8.3 0 1.8 0.5 4.8l0.6 3-0.4 2.9q0 5.5 7.2 5.5 2.2 0 5.3 1 3.1 1.1 4.5 1.1zm-0.3-92.8q1-0.2 2.7-0.2l3.3 0.2q2.9 0 10.9-8.6 8-8.6 8-18.4 0-3.6-0.7-6.9-0.7-3.2-2.1-6.3-1.4-3.1-3.5-6-2-2.9-4.4-4.9-2.4-1.9-4.1-2.4l-11.6-3.3q-5.5-1.6-7.3-1.6-6.5 0-8.4 5.4-1.9 5.5-1.9 19l1.2 25.1q0 7.9 0.6 10.5 0.7 2.7 3.5 2.7l1.5-0.2 2.8 0.5q2.7 0 3.8-2.1l2.6 0.2 2.4-0.2zm199.1-62.7q9.4 32.3 58.9 138.7 6.6 10 6.6 16.9 0 1.6-1.1 2.9-1.1 1.3-8.1 3.4-7.1 2.1-9.3 3-1.8-2.1-1.8-4.1 0-1.7 0.5-4l0.6-1.7q0-3.9-3.8-15.9-3.9-12-13.1-30.6-0.9-0.5-1.9-2.6-1-2.2-5-2.2-2.2 0-4.3 2.2-0.3-0.9-4.9-1.7l-3.5-1h-3.5q-11.9 0-16.5 1.4-4.7 1.3-4.9 1.3-1.6 0-2.6-1.7-7.2 2-10.7 1.5-3.4-0.5-6.8-0.5-7.7 0-14.3 1.8-6.6 1.8-8.5 1.9-2 0.1-3.7 3l-1.6-1.2q-12 24.7-17.8 38.8-0.7 8.8-3.7 14.9-3 6.1-5.4 6.1h-0.2q-4-1.6-16.3-3.8-1.9-0.4-1.9-2.1 0-3.9 4.1-7.2 4.1-3.3 4.7-5.1 3.9-7.2 7-10 4.2-5.1 10.6-16.6 6.4-11.5 10.5-15.4 0.1-5.2 11.1-22.1 11.1-17 19.2-31.8 8-14.8 9-16 16.2-23.3 16.2-31.7v-0.5q2.6 0 2.6-1.1v-1.2q0-4.3 5.8-9.4l1.6 0.8q3-3.9 4.8-3.9 2.1 0 2.1 3.1 0 1.9-0.7 3.4zm5.7 96q3.3-1 6.8-1 8-1.5 8-4.5 0-0.3-13.5-34.6-13.6-34.4-17.8-34.4-2.9 0-11.3 16.3-8.5 16.2-19 33.3-10.6 17.2-10.6 21 0 2.7 3.6 3.6 3.5 1 4 1l2.3-0.3q1.9 0 5.3 0.6 3.4 0.6 4.7 0.6 2.8 0 9.2-0.9 6.3-1 8-1 1.6 0 4 0.5 2.3 0.5 3 0.5 1.6 0 2.3-1.7 2.9 1 5.3 1l3.6-0.3q1.3 0 2.1 0.3zm238.2 48.9q1.1 1.4 1.1 3.7 0 4.2-3.8 8.2-3.8 4-6.7 4-2.1 0-6.2-4.4l-6.6-6.6q-7.4-7.2-25.4-17.9-18.1-10.6-48.1-31.4l-1.4-6.3v-0.9q0-1.8 1.8-2.3 1.9-0.5 5.5-1.8 22.2-7.3 31.1-17.1 8.9-9.9 8.9-26.6 0-20-11.7-28.6-11.6-8.6-26.7-8.6h-5.1q-3.6 0-6.6 2.1-3 2.1-3 10.7 0 4.1 0.3 6.7 0.3 2.6 0.3 7.4l-1.2 29.1q0 6.9 0.1 10.9l0.4 8.5-0.5 5.3q-0.4 6.2-0.4 13.2 0 6.4 1.9 58.4-0.7 0.8-1.8 2.6-1.1 1.7-1.8 1.7-0.6 0-1.7-0.8-7.4 2.2-7.9 2.2-1.8 0-3.6-2.4-1.8-2.5-1.8-7.4v-1.2q5.5-8.6 5.5-34.7l-0.7-42.9 0.7-30.8-0.3-18.5q0-4.1-0.9-10.8-0.9-6.7-0.9-9.5 0-2.6 0.8-3.9 0.9-1.2 3-1.6 2-0.3 7.6-1 5.6-0.6 11.9-0.6 11.8 0 21.5 2.1 9.7 2.2 18.7 7.2 8.9 5 12.4 10.7 3.5 5.7 5.3 11.4 1.7 5.7 1.7 11.1 0 30.6-39.9 46.5-2.8 2.1-2.8 3.7 0 2.9 4.7 6.5 4.7 3.7 17.7 12 3.4 1.7 8 5.3 4.7 3.6 6.3 4.8 4.9 1.9 8.8 4.9 3.8 3 6.2 3.5 2.4 0.6 3 1 0 1 1.7 2.3 4.3 2.2 10.5 6.7 6.2 4.4 8.6 4.4 1 0 1.5-0.2zm139.8-34.1q0-0.3 2.7-6.3 0.7-6.4 0.7-16.5l-0.2-13.9 0.5-25.1q0-18.9-1.1-27.2-1-8.3-1-8.7 0-1 0.3-2.6 0.4-1.6 0.4-2.2l-0.3-2.3q0-4.1 5.3-5.6 5.4-1.4 22-1.4 15.6 0 27.2 2.3 11.7 2.2 20.1 7 8.4 4.8 12 10.3 3.6 5.5 5.2 10.2 1.6 4.8 1.6 16.2 0 8-2.4 13.8-2.4 5.9-8.6 15.6-6.2 9.8-14.2 16.6-8 6.8-17.2 11-9.1 4.1-20.9 5.9-8.8 1.3-11.9 3.8-3.1 2.6-3.1 11.7 0 3.9 0.8 8.6 0.8 4.8 0.8 10.1l-0.2 5.3q0 2.3 0.5 5.2l0.4 3v1.6q0 1.9-0.7 2.4-0.7 0.5-3.9 1.1-3.2 0.6-6.2 1.8-3.1 1.1-3.5 1.1-0.6 0-2.6-0.8-2-0.8-3.9-1.2-1.8-0.4-1.8-1.2 0-0.7 2.1-3.1 2.2-2.4 2.2-5.1v-0.7q0.6-4.7 1.7-9.3 1.1-4.5 1.1-12.2 0-4.6-0.4-9.7-0.4-5.1-0.8-5.8-0.4-0.8-1.5-2-1.2-1.2-1.2-1.5zm18-9.8q9.5-1.5 17.9-4 8.3-2.5 15.1-5.7 6.8-3.1 9.9-6.2 3.2-3 7.1-7.3 3.9-4.4 6-7.2 1.1-2.8 3.3-7.8 2.2-5.1 2.7-9.6 0.6-4.4 0.6-10.4 0-12.9-6.2-18.8-6.2-5.9-14.4-11.3-8.1-5.3-24.4-5.3h-8.2q-5.7 0-8 2.7-2.3 2.6-2.3 9.2l0.9 18.3-0.2 20.1v26.5q0 10.5 0.2 16.8zm159.7-98.8q1.1 0 5.2 0.4 4 0.5 7.4 0.5l26.7-0.5 10.4 0.5q2.5 0 8.8-0.8 6.3-0.8 10.3-0.8 6.3 0 6.3 3.2 0 0.3-0.9 4.8-0.9 4.6-2.7 5.7-1.8 1.1-5.3 1.1-0.9 0-7-0.5-8.7-5.2-38.1-5.2-5.2 0-12.5 0.3-7.4 0.3-8.5 0.8-1.2 0.5-2.5 1.5-1.4 5.4-3 19.9-1.5 14.5-1.5 16.4 0 5.4 1.6 10 1.6 4.6 1.9 7.8 0.3 3.1 5.6 3.1h1.8q1.3 0 1.5 0.2 0 0.2 1.7 1.2 1.6 1 3.8 0.9 2.2 0.1 6.9-0.4 4.7-0.5 7-0.5 0.6 0 2.1 0.2 1.5 0.3 2.3 0.3 3.4 0 5.4-1.7l6.3 0.6q2-1 13.2-1.8 0.2 0.7 0.2 2.2 0 1-0.2 3.1-0.3 2-0.3 3.1 0 1.7 0.3 2.4-1.7 5.3-9 5.3-2 0-6.6-1.7-4.7-1.7-9.7-1.7l-6.9 0.2q-2.6 0-9-0.6-6.4-0.5-10.4-0.5h-3.4q-3.1 2-4.3 3.4-1.1 1.5-2.4 8.8-1.3 7.3-1.3 15.5 0 5.8 0.9 17.8 1 12 1.4 18.3 0.4 6.3 0.7 6.6 0.4 0.3 1.6 0.7 1.2 0.5 1.8 1.1l6.9 0.2q5.8 0 16.2-0.8l10.2-0.8 3.2 0.3q1.6 0.1 4.1 0.1 9.9 0 29.4-4 3.5-1.9 4.8-1.9 1.4 0 1.4 2.3l-1.2 4.6 0.3 4.1q0 4.2-2 5.2-2 1-8.1 1-4.4 0-14.1-0.7-10.3-1.9-20.3-1.9l-29.3 0.5h-3.9q-2-1.2-2.5-1.2-0.8 0-1.3 0.7-0.6 0.7-1.6 0.3-1.1-0.3-1.6-0.3-1.7 0-3.1 1.4-3 0.3-4.8 2.2h-0.8q-2 0-3.3-1.7 1.2-1.6 1.2-2.8l-0.2-2q0-1.6 0.7-2.6-0.5-0.2-0.5-0.9 0-0.6 0.4-3.4 2.3-19.7 2.3-40.5l-0.2-23.4 0.4-16.5v-5.7l0.3-31q0-11.3-0.7-19.6-2-6.9-2-8.6 0-1.1 1.1-1.9 1.2-0.8 10.1-3.1l0.5-1.5 1.9 1 1.7-0.4q3.1 0 6.8 2.1zm155 0q1.2 0 5.2 0.4 4.1 0.5 7.4 0.5l26.8-0.5 10.4 0.5q2.5 0 8.8-0.8 6.3-0.8 10.3-0.8 6.3 0 6.3 3.2 0 0.3-0.9 4.8-0.9 4.6-2.7 5.7-1.8 1.1-5.3 1.1-0.9 0-7-0.5-8.8-5.2-38.2-5.2-5.1 0-12.4 0.3-7.4 0.3-8.6 0.8-1.1 0.5-2.4 1.5-1.4 5.4-3 19.9-1.6 14.5-1.6 16.4 0 5.4 1.7 10 1.6 4.6 1.9 7.8 0.3 3.1 5.5 3.1h1.9q1.3 0 1.5 0.2 0 0.2 1.6 1.2 1.7 1 3.9 0.9 2.2 0.1 6.9-0.4 4.6-0.5 7-0.5 0.6 0 2.1 0.2 1.5 0.3 2.3 0.3 3.4 0 5.4-1.7l6.3 0.6q1.9-1 13.1-1.8 0.3 0.7 0.3 2.2 0 1-0.3 3.1-0.2 2-0.2 3.1 0 1.7 0.2 2.4-1.6 5.3-8.9 5.3-2 0-6.7-1.7-4.7-1.7-9.7-1.7l-6.8 0.2q-2.6 0-9-0.6-6.4-0.5-10.4-0.5h-3.4q-3.1 2-4.3 3.4-1.2 1.5-2.5 8.8-1.2 7.3-1.2 15.5 0 5.8 0.9 17.8 0.9 12 1.3 18.3 0.4 6.3 0.8 6.6 0.3 0.3 1.6 0.7 1.2 0.5 1.8 1.1l6.9 0.2q5.8 0 16.2-0.8l10.1-0.8 3.3 0.3q1.5 0.1 4.1 0.1 9.9 0 29.4-4 3.5-1.9 4.8-1.9 1.4 0 1.4 2.3l-1.2 4.6 0.2 4.1q0 4.2-1.9 5.2-2 1-8.1 1-4.4 0-14.1-0.7-10.3-1.9-20.4-1.9l-29.2 0.5h-4q-2-1.2-2.4-1.2-0.8 0-1.4 0.7-0.5 0.7-1.5 0.3-1.1-0.3-1.7-0.3-1.6 0-3 1.4-3.1 0.3-4.8 2.2h-0.8q-2 0-3.3-1.7 1.2-1.6 1.2-2.8l-0.3-2q0-1.6 0.7-2.6-0.4-0.2-0.4-0.9 0-0.6 0.3-3.4 2.4-19.7 2.4-40.5l-0.3-23.4 0.5-16.5v-5.7l0.2-31q0-11.3-0.7-19.6-2-6.9-2-8.6 0-1.1 1.2-1.9 1.2-0.8 10.1-3.1l0.4-1.5 2 1 1.6-0.4q3.2 0 6.8 2.1zm134.6 108.6q0-0.3 2.7-6.3 0.7-6.4 0.7-16.4l-0.2-13.9 0.5-25.2q0-18.9-1.1-27.2-1-8.3-1-8.6 0-1.1 0.3-2.7 0.4-1.5 0.4-2.1l-0.3-2.4q0-4.1 5.3-5.5 5.4-1.5 22-1.5 15.6 0 27.2 2.3 11.7 2.3 20.1 7.1 8.4 4.8 12 10.2 3.6 5.5 5.2 10.3 1.6 4.7 1.6 16.2 0 7.9-2.4 13.7-2.4 5.9-8.6 15.6-6.2 9.8-14.2 16.6-8 6.9-17.2 11-9.1 4.2-20.9 5.9-8.8 1.3-11.9 3.9-3.1 2.5-3.1 11.7 0 3.8 0.8 8.6 0.8 4.7 0.8 10.1l-0.2 5.2q0 2.4 0.5 5.3l0.4 2.9v1.6q0 1.9-0.7 2.4-0.7 0.6-3.9 1.1-3.2 0.6-6.2 1.8-3.1 1.2-3.5 1.2-0.6 0-2.6-0.9-2-0.8-3.9-1.2-1.8-0.4-1.8-1.2 0-0.7 2.1-3.1 2.2-2.4 2.2-5.1v-0.7q0.6-4.7 1.7-9.2 1.1-4.6 1.1-12.3 0-4.6-0.4-9.6-0.4-5.1-0.8-5.9-0.4-0.7-1.5-2-1.2-1.2-1.2-1.4zm18-9.8q9.5-1.6 17.9-4.1 8.3-2.5 15.1-5.6 6.8-3.2 9.9-6.2 3.2-3.1 7.1-7.4 3.9-4.3 6-7.1 1.1-2.8 3.3-7.9 2.2-5.1 2.7-9.5 0.6-4.5 0.6-10.4 0-13-6.2-18.9-6.2-5.9-14.4-11.2-8.1-5.3-24.4-5.3h-8.2q-5.7 0-8 2.6-2.3 2.6-2.3 9.3l0.9 18.2-0.2 20.1v26.5q0 10.6 0.2 16.9zm218.2-101q9.4 32.2 58.9 138.7 6.7 9.9 6.7 16.8 0 1.7-1.2 3-1.1 1.2-8.1 3.3-7.1 2.1-9.3 3.1-1.8-2.1-1.8-4.1 0-1.8 0.5-4l0.6-1.7q0-3.9-3.8-15.9-3.9-12-13.1-30.6-0.9-0.5-1.9-2.7-1-2.1-5-2.1-2.2 0-4.3 2.2-0.3-0.9-4.9-1.8l-3.5-0.9h-3.5q-11.9 0-16.5 1.3-4.7 1.4-4.9 1.4-1.6 0-2.6-1.8-7.2 2-10.6 1.6-3.5-0.5-6.9-0.5-7.7 0-14.3 1.8-6.6 1.8-8.5 1.9-1.9 0-3.7 2.9l-1.6-1.1q-12 24.6-17.8 38.8-0.7 8.7-3.7 14.9-3 6.1-5.4 6.1h-0.2q-4-1.6-16.3-3.9-1.9-0.3-1.9-2.1 0-3.8 4.1-7.1 4.1-3.4 4.7-5.1 3.9-7.3 7-10.1 4.2-5 10.6-16.5 6.4-11.5 10.5-15.5 0.1-5.1 11.2-22.1 11-16.9 19.1-31.7 8-14.9 9-16 16.2-23.3 16.2-31.7v-0.5q2.6 0 2.6-1.2v-1.1q0-4.4 5.8-9.4l1.6 0.7q3-3.8 4.8-3.8 2.1 0 2.1 3.1 0 1.9-0.7 3.4zm5.7 95.9q3.3-0.9 6.8-0.9 8-1.5 8-4.6 0-0.2-13.5-34.5-13.5-34.4-17.7-34.4-3 0-11.4 16.2-8.5 16.3-19 33.4-10.5 17.1-10.5 21 0 2.7 3.5 3.6 3.5 0.9 4 0.9l2.3-0.2q1.9 0 5.3 0.6 3.4 0.6 4.7 0.6 2.8 0 9.2-1 6.3-0.9 8-0.9 1.6 0 4 0.5 2.3 0.4 3 0.4 1.6 0 2.3-1.6 2.9 0.9 5.3 0.9l3.6-0.2q1.3 0 2.1 0.2zm209.7 53.7q1.9 2.4 2 6.2-0.1 4.6-1.5 6.9-1.5 2.2-3.1 2.2-1.5 0-5.6-0.8-4-0.7-4-2.1l-0.9 1.6h-0.7q-1.1 0-2.2-1.5-1.1-1.4-1.4-1.8-8.3 1.4-18.5 1.4h-22.2q-4.8 0-13.7 0.5-3.3 2.7-3.8 2.7h-0.3q-3.1-2-8.9-2l-3.7 0.2q-0.8 0.5-1.7 1.8-2.1-2.2-2.1-4.8 0-2.1 0.9-5.3 1.9-3.2 1.9-11.5v-3.1q1.9-13.4 1.9-36.9l-0.2-43q0-2.9 0.5-8 0.4-5.1 0.4-7.3l0.5-13.4q0-6.2-1.7-13.3-1.8-7-2.1-8.8l-1.7-1.7v-0.7q0-7.9 8.4-7.9 6.5 0 10.7 3.1 4.2 3.1 4.2 7.8-4.6 6.3-4.6 19l0.2 10.9q0 3.5-0.8 10.1-0.9 6.7-0.9 10 0 2 0.5 6.9 0.5 5 0.5 7.9l-0.5 15.5v21.1l-1.2 24.2q0 8.4 2.7 14.6 2.6 0.2 5.9 0.2 0.5 1.1 11.8 1.9 11.3 0.9 16.3 0.9 13.4 0 20.3-3 0.5 0.4 0.7 0.4 0.6 0 2.9-0.8 2.3-0.9 4.2-0.9l3 0.6zm-922.3 164.2q0.5 0.6 0.5 1.6 0 1.9-1.7 3.7-1.7 1.7-3 1.7-0.9 0-2.7-1.9l-3-2.9q-3.2-3.3-11.2-8-8-4.7-21.3-13.9l-0.7-2.8v-0.4q0-0.8 0.9-1 0.8-0.3 2.4-0.8 9.8-3.2 13.8-7.6 3.9-4.4 3.9-11.8 0-8.9-5.2-12.7-5.1-3.8-11.8-3.8h-2.2q-1.7 0-3 1-1.3 0.9-1.3 4.7 0 1.8 0.1 3 0.2 1.1 0.2 3.2l-0.6 12.9q0 3.1 0.1 4.9l0.1 3.7-0.2 2.4q-0.2 2.7-0.2 5.8 0 2.9 0.9 25.9-0.4 0.4-0.8 1.2-0.5 0.7-0.8 0.7-0.3 0-0.8-0.3-3.3 1-3.5 1-0.8 0-1.6-1.1-0.8-1.1-0.8-3.3v-0.5q2.5-3.8 2.5-15.4l-0.4-19 0.4-13.7-0.1-8.2q0-1.8-0.5-4.8-0.4-2.9-0.4-4.2 0-1.1 0.4-1.7 0.4-0.6 1.3-0.7 0.9-0.2 3.4-0.4 2.5-0.3 5.3-0.3 5.2 0 9.5 0.9 4.3 1 8.3 3.2 3.9 2.2 5.5 4.7 1.5 2.6 2.3 5.1 0.8 2.5 0.8 4.9 0 13.6-17.7 20.6-1.3 1-1.3 1.7 0 1.2 2.1 2.9 2.1 1.6 7.9 5.3 1.5 0.7 3.6 2.3 2 1.6 2.7 2.2 2.2 0.8 3.9 2.1 1.7 1.3 2.8 1.6 1.1 0.2 1.3 0.4 0 0.5 0.7 1 2 1 4.7 3 2.7 2 3.8 2 0.5 0 0.7-0.1zm32.9-63.3q0.5 0 2.3 0.2 1.8 0.2 3.3 0.2l11.8-0.2 4.6 0.2q1.1 0 3.9-0.4 2.8-0.3 4.6-0.3 2.8 0 2.8 1.4 0 0.1-0.4 2.1-0.4 2.1-1.2 2.6-0.8 0.5-2.4 0.5-0.4 0-3.1-0.3-3.8-2.3-16.9-2.3-2.2 0-5.5 0.1-3.3 0.2-3.8 0.4-0.5 0.2-1.1 0.7-0.6 2.4-1.3 8.8-0.7 6.4-0.7 7.3 0 2.3 0.7 4.4 0.8 2 0.9 3.4 0.1 1.4 2.4 1.4h0.9q0.5 0 0.6 0.1 0 0.1 0.8 0.5 0.7 0.5 1.7 0.5 1 0 3-0.2 2.1-0.2 3.1-0.2 0.3 0 1 0.1 0.6 0.1 1 0.1 1.5 0 2.4-0.8l2.8 0.3q0.8-0.5 5.8-0.8 0.1 0.3 0.1 1 0 0.4-0.1 1.3-0.1 0.9-0.1 1.4 0 0.8 0.1 1.1-0.7 2.3-4 2.3-0.9 0-2.9-0.7-2.1-0.8-4.3-0.8l-3.1 0.1q-1.1 0-3.9-0.2-2.9-0.3-4.7-0.3h-1.4q-1.4 0.9-2 1.5-0.5 0.7-1 3.9-0.6 3.3-0.6 6.9 0 2.6 0.4 7.9 0.4 5.3 0.6 8.1 0.2 2.8 0.3 2.9 0.2 0.1 0.7 0.3 0.6 0.3 0.8 0.5l3.1 0.1q2.6 0 7.2-0.3l4.5-0.4 1.4 0.1q0.7 0.1 1.8 0.1 4.4 0 13.1-1.8 1.5-0.8 2.1-0.8 0.6 0 0.6 1l-0.5 2 0.1 1.8q0 1.9-0.9 2.3-0.9 0.5-3.6 0.5-1.9 0-6.2-0.3-4.6-0.9-9-0.9l-13 0.2h-1.8q-0.8-0.5-1-0.5-0.4 0-0.6 0.3-0.3 0.3-0.7 0.2-0.5-0.2-0.8-0.2-0.7 0-1.3 0.7-1.4 0.1-2.1 0.9h-0.4q-0.9 0-1.4-0.7 0.5-0.7 0.5-1.3l-0.1-0.9q0-0.6 0.3-1.1-0.2-0.1-0.2-0.4 0-0.3 0.1-1.5 1.1-8.7 1.1-17.9l-0.1-10.5 0.2-7.3v-2.5l0.1-13.7q0-5-0.3-8.7-0.9-3.1-0.9-3.8 0-0.5 0.5-0.9 0.5-0.3 4.5-1.3l0.2-0.7 0.8 0.5 0.8-0.2q1.4 0 3 0.9zm83 7.4q-0.6-0.4-2.1-1.8-1.6-1.5-3.6-1.5-8.3 0-13.1 3.8-4.8 3.7-4.8 9.8 0 6.6 14.2 14 0.9 0 2.1 0.2 1.2 0.2 4.1 3 2.9 2.7 4.4 4.9 1.5 2.2 2.3 4.5 0.7 2.3 0.8 4.5-0.1 9.8-4.7 15.2-4.6 5.4-16.4 9.7-0.6-0.2-1.1-0.2-0.8 0-2.6 0.9-1.8 0.9-7.3 0.9-2 0-2.8-1.6-0.8-1.7-0.8-4.9 0-0.9 0.7-1.8h0.5q1.3 0 2.8 1.6 3.1 0.7 3.8 0.7 0.6 0 4.9-0.5 4.4-0.5 8.2-2.5 3.9-1.9 5.3-3.6 1.4-1.8 2.7-4.3 1.4-2.4 1.4-5.6 0-4.7-2.9-9-2.9-4.3-6.3-4.9v-0.2q0-0.9-2.3-2.2-9.2-4.2-12.8-8.3-3.7-4-3.7-9.6 0-2.2 0.6-4.3 0.6-2.1 1.8-4.1 1.1-1.9 2.8-3.6 1.7-1.6 4.5-3.2 2.9-1.7 4-1.7h1.6q0.2-0.1 1.2-1.2 1.3-0.1 3-0.8 1.7-0.7 2.2-0.9 0.5 0.3 0.7 0.9 1.5-0.3 3-0.3h1.1q2.3 0 3.6 0.6 1.3 0.6 1.3 2.6 0 1.7-0.7 3.2-0.8 1.4-1.6 1.6z"/>
		<path id="Path 7" fill-rule="evenodd" class="s0" d="m886.3 806.2q3.6-0.3 9 8 5.4 8.2 5.4 18.1 0 5-0.9 9.5-1 4.5-2.8 8.2-4 8.3-5.7 10.7-3.7 5.4-8.3 8.7-4.6 3.3-9.5 4.8-4.8 1.5-10.9 1.5-14.4 0-15.5-2.5-1-0.4-3.1-1.1-2-0.7-2.2-0.9l-1.3-1.7q-1.9-0.5-2-0.5-5.4-3.4-7.9-9.3-2.6-5.9-2.6-16.7 0-8.4 5.7-19.4 0.3-0.8 0.6-1.9 0.3-1.1 1.3-1.8 0.9-0.7 1-1.3 4.4-4.9 5.2-6 0.8-1.1 3.8-2.3 2.9-1.2 3.9-2.9 0.3-0.5 0.9-0.3 0.6 0.1 0.9 0.1l0.4-0.1q0.4-0.5 0.8-0.9 0.3-0.4 0.5-0.3 0.2 0 4-1.2 3.8-1.3 4.4-1.2 0.6 0.1 4.4-0.5l3.4-0.6q1.2 0 2.9 0.4 1.6 0.4 2.2 0.5 9.5 1 12 2.9zm1.6 51.5q6.2-11.4 6.2-20.9 0-6.5-1.5-11.6-1.5-5.1-4.3-8.7-2.9-3.6-6.7-5.8-3.8-2.2-9.8-2.9-5.9-0.7-7-0.7-0.2 0-1 0.5-0.8 0.6-1.4 1.4-0.6 0.3-1.7 0.3l-1.7-0.1q-1.9 0-2.8 1.6-0.1 0.1-0.4 0.1-0.2 0-0.4-0.5l-0.7 0.4v0.7q-0.2 0-0.4-0.3-0.2-0.4-0.5-0.4h-0.2q-4.9 1.7-5.7 2.9-1.3 0.4-1.9 0.5-0.7 0.7-1.9 2.3-1.3 1.7-2.1 2.6-0.8 1-1.6 1.6-0.7 0.7-0.7 2.3-2.7 2.5-4.3 8.3-1.6 5.8-1.6 12 0 5.7 1.7 10.3 1.7 4.6 4.2 5.8v1.1q1.6 1.9 3.4 3.5 1.8 1.6 5.3 2.8 3.5 1.2 5.9 1.9 2.4 0.7 5.4 1.2 2.9 0.4 5.9 0.4 1.7 0 2.8-0.1l3.7-0.9q1.6-0.3 2.6-0.5 0.4-0.1 2.7-1.5l3.8-2.1q0.5-0.3 0.8-0.6 0.3-0.4 0.3-1v-0.4q0.2-0.5 2-1.5 1.7-1 2.7-1.5 1.1-0.6 1.1-1.4 0-0.7-0.2-1.1zm92.9 9.5q0.5 0.6 0.5 1.7 0 1.8-1.7 3.6-1.7 1.8-3 1.8-0.9 0-2.7-2l-3-2.9q-3.2-3.2-11.2-7.9-8-4.8-21.3-14l-0.7-2.8v-0.4q0-0.8 0.9-1 0.8-0.2 2.4-0.8 9.8-3.2 13.8-7.6 3.9-4.3 3.9-11.8 0-8.8-5.1-12.6-5.2-3.8-11.9-3.8h-2.2q-1.7 0-3 0.9-1.3 0.9-1.3 4.7 0 1.8 0.1 3 0.2 1.2 0.2 3.3l-0.6 12.9q0 3 0.1 4.8l0.1 3.8-0.2 2.3q-0.2 2.8-0.2 5.9 0 2.8 0.9 25.9-0.3 0.3-0.8 1.1-0.5 0.8-0.8 0.8-0.3 0-0.8-0.4-3.2 1-3.5 1-0.8 0-1.6-1.1-0.8-1.1-0.8-3.3v-0.5q2.5-3.8 2.5-15.4l-0.3-19 0.3-13.6-0.1-8.2q0-1.8-0.5-4.8-0.4-3-0.4-4.2 0-1.2 0.4-1.7 0.4-0.6 1.3-0.8 0.9-0.1 3.4-0.4 2.5-0.3 5.3-0.3 5.2 0 9.5 1 4.3 0.9 8.3 3.2 3.9 2.2 5.5 4.7 1.6 2.5 2.3 5 0.8 2.6 0.8 5 0 13.5-17.7 20.6-1.3 0.9-1.3 1.6 0 1.3 2.1 2.9 2.1 1.6 7.9 5.3 1.5 0.8 3.6 2.4 2 1.6 2.8 2.1 2.1 0.8 3.8 2.1 1.7 1.4 2.8 1.6 1.1 0.3 1.3 0.4 0 0.5 0.7 1.1 2 1 4.7 2.9 2.7 2 3.8 2 0.5 0 0.7-0.1zm74-62.1q-0.3 2.6-1.1 4.1-1.1 0.2-1.2 0.2-1.8 0-4.3-0.2-2.5-0.2-3.4-0.2-0.6 0-0.9 0.1-0.8-1-7.1-1l-8.7 0.4h-0.3q-0.5 0-0.9 0.3-1.2 4.3-1.7 12-0.5 7.7-0.5 12.2l0.3 5.8-0.7 3.6q-0.3 1.8-0.4 3.5-0.1 1.7-0.1 4l0.7 11.1q-0.1 2-0.6 2.2 0.5 0.1 1 3 0.4 2.9 0.8 4.4 0.5 1.4 0.5 1.8 0 0.7-2.8 1.7 0.1 0.1 0.1 0.5 0 0.4-0.3 0.4-0.3 0-0.6-0.6-1.1 0.8-1.8 1.1-0.3-0.9-1.4-0.9-0.5 0-1.5 0.1-1 0.1-1.5 0.1h-0.4q1.1-0.6 0.8-3.8-0.2-1.8-0.2-2.7 0 0 0.2-0.5 1.7-4.6 1.7-19.2l0.4-23.7q0-11.3-1-14.2 0.1-0.3 0.1-0.7 0-0.6-0.2-0.9-0.2-0.4-1.1-0.5l-3.1-0.2q-2.2-0.2-3-0.2-4.2 0-4.9 1.3-0.9-0.5-1.7-0.5-0.7 0-1.7 0.4-1.1 0.5-2.9 0.5-2 0-3.4-1.2-0.2-0.3-0.2-0.8 0-0.7 0.5-2.1 0.5-1.4 0.5-2.2v-0.2q0.7-0.4 1.8-0.4 0.7 0 4.1 0.5 3.5 0.5 7.6 0.5h7.7q2.8 0 5.2-0.6l0.3-0.7q0.6 0.2 0.7 0.5l0.9-0.2q0.6 0 1.4 0.8 0.9 0.7 1.4 1.1 0.5 0 2.3-0.3 1.8-0.3 3.4-0.3l8.5-0.2 1.5 0.2h0.4q0.9 0 3.1-0.2 2.3-0.3 3.7-0.3 3.4 0 4 1.3z"/>
		<path id="Path 8" fill-rule="evenodd" class="s2" d="m107.7 1006.1q1.6 0 1.6 1.9 0 0.4-5.8 13.9-5.8 13.5-9.1 18.2-3.2 4.8-7.6 4.8-1 0-1-0.7 0-1.7 6.5-13.4 6.5-11.7 11.3-21.5 1.4-3.2 4.1-3.2zm19.9 2.5q0.2 0.6 0.2 2.2 0 4.1-2.8 11-2.8 6.9-4.5 12.5-1.6 5.5-4.5 8-2.9 2.4-6.9 3.4v-2.8q2.4-3.8 4.5-7.9 2.1-4 3.9-8.3 1.8-4.3 3.4-8.8 0-0.2 1.4-1.8 0.7-0.8 1.7-4.1 0.9-3.2 3.6-3.4zm68.1 12.4q-0.9-0.5-3.4-2.8-2.4-2.3-5.7-2.3-13.1 0-20.7 5.9-7.5 5.9-7.5 15.5 0 10.5 22.4 22.2 1.4 0 3.4 0.3 1.9 0.4 6.4 4.7 4.6 4.4 7 7.9 2.4 3.5 3.6 7.1 1.2 3.5 1.2 7.1 0 15.6-7.3 24.1-7.3 8.5-26 15.3-1-0.3-1.8-0.3-1.3 0-4.1 1.4-2.9 1.5-11.6 1.5-3.1 0-4.4-2.6-1.2-2.6-1.2-7.7 0-1.4 1.1-2.9h0.7q2.1 0 4.4 2.6 5 1.1 6.2 1.1 0.9 0 7.7-0.8 6.9-0.9 13-3.9 6.1-3 8.3-5.8 2.2-2.8 4.4-6.7 2.1-3.9 2.1-8.9 0-7.5-4.6-14.3-4.5-6.9-9.9-7.8v-0.3q0-1.4-3.7-3.5-14.5-6.6-20.2-13.1-5.8-6.4-5.8-15.2 0-3.5 0.9-6.9 1-3.3 2.8-6.4 1.8-3.1 4.4-5.7 2.7-2.5 7.2-5.2 4.5-2.6 6.3-2.6h2.6q0.2-0.2 1.8-1.9 2.1-0.1 4.8-1.3 2.7-1.1 3.5-1.4 0.8 0.5 1.1 1.4 2.3-0.5 4.7-0.5h1.7q3.8 0 5.8 1 2.1 1 2.1 4.2 0 2.6-1.2 4.9-1.2 2.4-2.5 2.6zm83.8 48.1q0.7 0.7 0.7 1.9 0 2.4-1.3 3.5 0.1 0.1 0.1 0.5 0 1.3-3.5 1.3h-1.1q-0.5 0-1 0.6-0.5 0.6-0.8 0.6 0 0-0.7-0.5-0.7-0.5-2.1-0.7l-1-1q-1.8 0.5-3.5 0.5-1.4 0-3.7-0.3-2.3-0.3-3.4-0.3-0.9 0-3.8 0.5-2.9 0.5-5.1 0.5l-8.1-0.4q-6.5 0-11.7 1.2-0.8 0.4-2.2 0.6-1.4 0.2-1.5 1.3-0.2 1.1-1.7 1.8-0.8 3.3-0.8 6 0 2.2 1.2 8.2 1.2 6 3.3 8.5 0.5 0.6 7 5.2 4.2 3.2 9.1 4.8 4.9 1.6 11.3 1.6 2.5 0 6.3-0.5l3.4-0.4h5.4q0.8 0 3-1.4 2.3-1.5 4.6-1.8 1 2.3 1 4.1 0 3.8-2.4 6.7-2.3 2.9-5.3 2.9l-1.8-0.4-5.1 0.2h-4.5q-3.1 0-15.3-2.6-12.2-2.7-18.1-6.9-5.8-4.3-8.5-11.1-2.7-6.7-2.7-13 0-8.6 3.3-17.4 3.3-8.8 7.5-13.7 4.1-4.9 12.7-10.1 0.8-0.4 2.5-1.7 1.7-1.3 3.2-1.3l2.7 0.2q1.7-1.2 6.2-1.9 4.5-0.8 7.3-0.8 5 0 10.9 3.7 6 3.7 7.2 15.4 0.2 2 0.7 3.3 0.5 1.3 0.5 1.5 0 0.4-0.4 1.1zm-33.6-18q-0.5 0.8-4.7 2.7-2 1.5-3.9 3.4-1.9 1.9-3.7 4.1-1.8 2.1-3.2 3.9-1.3 1.7-2.1 2.5-0.7 0.9-0.7 1.6 0 0.9 1.1 1.3l1.1 0.4h6.1l28.5-1.1q5.5 0 5.5-4.8 0-5.1-2-8.9-2-3.8-10.5-6-1 0-2.8-0.2-1.8-0.2-2.6-0.2-0.8 0-6.1 1.3zm97.8 6.9q0 0.8-1.2 2.8-1.1 1.9-1.5 3.6-0.4 1.7-2.2 3.4h-2q-4.3-2.6-6.3-2.6-1.5 0-4.9 1.8-3.3 1.7-6.5 6.1-3.1 4.4-4 6.9-0.4 2.8-2.6 5.9v2.7q-1.6 4-1.3 5.9 0.2 1.8 0.2 2.8 0 1.1-0.1 1.7-1 1-1 2 0 2.1 0.8 7.2 0.9 5.2 2.9 7.9v0.7q0 3.7-3.1 3.7l-1.6 1.7q-2 0.1-4.4 0.1-3.1 0-5.4-0.8v-0.3q0-2.2 1.4-6.5 1.3-4.3 1.3-6.5l0.5-19.2q0-22.5-2.4-39.7-0.3-1.8-0.3-2 0-3.1 3-4.8 3-1.6 5.2-1.6 2 0 3.7 1 0.2 0.3 0.6 1.1 0.5 0.8 0.5 1.1v1q0 1.2-1.4 5.5-1.5 4.2-1.5 10.8l0.2 10.1v1.5q0 1.2 2.2 1.7 3.4-7.6 8.2-12 4.8-4.4 11.9-6.4 7.1-2 8.9-2 2.2 1.5 2.2 2.7zm77.6-12.3l0.1 1.9q0 1.7-0.6 2.9-0.7 1.1-3.2 2.3-7.2 10.2-15.1 27.1-7.9 16.8-11.9 31.3-1 3.7-2.8 6.6-1.8 3-1.8 3.9 0 0.7 0.3 1-2.1 1-2.1 2.7-1.6-0.7-2.1-0.7-1.2 0-3.8 0.7-0.1-1-1.3-2.2-1.3-1.3-1.3-2.1-0.1-0.8-1.4-3.1-1.3-2.4-1.9-3.8l1-0.5q-19.6-50.5-23.5-54-2.9-3.4-2.9-5.2 0-2.3 2.4-5.5 2.4-3.3 4.5-3.3 0.7 0 1.7 0.8 1 0.7 2.6 1.7 1.7 0.9 2.6 1.6l0.2-0.2q0.6 0 1.1 8.4 0.4 5.4 5.1 17.1 4.7 11.8 5.9 13 1.3 1.2 1.5 1.9 1.8 7.8 5.3 12.1 3.4 4.3 4.1 4.3 1.6 0 1.8-3.2h0.2q0.8 0 2-2.4 1.2-2.4 3.5-8.1l4.1-10.6q4.4-11.2 5.8-13 1.4-1.9 1.5-2.4 0.1-0.5 0.4-1.6 0.3-1.1 0.3-1.6 1.7-2.5 2.7-8.7l1.5-1.4v-0.3l0.5-3.7-0.2-1.1q0-5.6 5-5.6 4.5 0 8.2 3zm25.4-29.2q1.3 1 4.3 2.4 2.9 1.4 2.9 3.4 0 1.8-2.1 3.8-2.1 2-4.3 2-2.4 0-5-2.7-2.7-2.7-2.7-3.1 0-1.5 2.3-3.6 2.2-2.2 4.4-2.2zm3.7 104.5q0 0.5-3.5 2-3.6 1.4-4.5 1.4h-0.5q-0.8 0-2.1 0.3-1.2 0.4-1.7 0.4-1.6 0-2.8-1.1-1.3-1.2-1.3-1.8 0-1.7 0.7-5.4 0.6-3.6 2-5.4 0.7-5.1 0.7-19.2l-0.7-29.8 0.2-5.2q0-0.8-1.4-3-1.3-2.2-1.3-5.4 0-1.9 1-2.7 1.1-0.8 4.8-2.3l4.7-2.1q0.3-0.1 1-0.1 2 0 2 6.4 0 3.6-1.2 18.7-1.3 15.1-1.3 24.6 0 5.3 0.3 10 0.3 4.7 0.6 7.2 0.3 2.5 1.5 4.5 2.3 4.3 2.3 7.7 0.3 0.2 0.5 0.3zm63.5-70.7q5.4-0.9 9-0.9 22.3 0 22.3 27.9 0 15.5-5.1 35.9-2.3 8.7-2.3 11.7 0 0.7 0.3 1.3-1 5.1-6 5.1-2.9 0-5.3-1.6-2.5-1.7-2.5-3.5 0-2.7 3.5-6.7 3.4-4 6.3-15.7 2.9-11.6 2.9-23.4 0-24.2-19.9-24.2-7.8 0-14.6 3.2-6.9 3.2-7.9 7-0.7 0.8-2.2 1.7-1.3 0.6-1.5 1.1-0.2 0.6-0.8 12.5-0.7 11.9-0.7 18v3.9q0 3 1 5.5 1 2.6 1 3l-0.1 2.9q0 2.7-1 4.3-0.9 1.6-2.4 1.6h-0.3l-0.5 1.1q-1-0.3-1.4-0.3-1.1 0-2.9 1.3h-0.5q-0.9 0-2.7-2.1-2.8 0-2.8-2.1 0-1.8 1.2-3 1.1 0 2.5-10.8 1.3-10.8 1.3-27.4 0-21.4-3.5-24.5l-0.1-1.5q0-3.1 3.6-4.1 1.4-0.4 2.6-2.3 1.2-1.8 2.5-1.8h0.2q1.6-0.2 2.8-0.8 1.2-0.6 1.4-0.6 1.1 0 1.1 3.2 0 2.5-1 5.7-0.9 3.1-0.9 3.9 0 1.3 0.8 2.2 0.9 0.9 2.2 0.9h0.5q2.3-2.2 2.5-2.2h0.2q7.9 0 11.9-3.2 0.7-0.1 1.8-0.3 1.1-0.2 1.4-0.2 2-1.3 2.1-1.7zm116.8-9.2q-1.9 8.8-1.9 29 0 6.6 0.8 20.6 0.7 14 0.7 24.8 0 20.5-4 32.7-4 12.3-6.6 12.3l-0.4-0.2q-2.2 6.1-10.7 8.2-8.5 2.1-12.5 2.1-1.7 0-4.9-0.5-3.2-0.5-4.7-0.5-1.7 0-2.4 0.2-1.1 1.1-2.4 1.1-1 0-1.6-0.8-0.7 1-2.5 1l-1.5-0.2q-0.2 0-1.1 0.3-0.9 0.2-1.1 0.2-0.8 0-2-1-1.2-1-1.2-3.5 0-1.4 0.3-3.4 0.3-2.1 0.3-2.8v-1.8q0-1 1.1-2.4h0.7q1.7 0 5.4 2.2 8.8 5.2 17.9 5.2 7.2 0 11.3-2.9 5.1-0.3 5.4-3.4 1.4-0.5 4.9-8.3 3.5-7.7 3.5-23.7v-2.4q-1.3-2.2-4.4-2.2-1.6 0-4 0.5-2.4 0.5-4.4 0.5-3.6 0-10.4-0.8-6.9-0.9-10.8-2-3.8-1-9.5-4.4-5.6-3.4-8-6.8-2.3-3.4-3.8-8-1.5-4.6-1.5-9.6 0-9.4 5.1-17.6 5.2-8.3 14.8-14.3 0.9-0.2 1.5-1.3 1.7-2.8 12.7-5.2l9.7-2.6h0.2q1 0 9.9-3.3l1.1 1.4q0.6-1.4 0.6-5.6v-3.7h1.5q7.5 0 8.9 2.9zm-15.8 68.7q0.3 1 1.7 1 4.7 0 4.7-10.8l-1.4-37.6 0.4-2.7q0-5.7-7.8-5.7-5.8 0-13.9 2.2-8.1 2.1-14.5 8.2-6.5 6.1-8.8 11.9-2.2 5.7-2.2 11.3 0 7.4 4.8 13.1 4.8 5.7 11.9 9 7.1 3.3 20.4 3.3 0.9 0 1.9-0.3 1-0.4 2.8-2.9zm194.3-99.8l-1.4 5.2q-2 6.5-2.8 14.5-0.8 8-0.9 18.7-0.2 10.7-0.8 18.5-0.6 7.7-0.6 12.6l0.1 9-0.1 6.1q0 4.7 1.2 10.9 1.2 6.1 1.2 8.2 0 4.7-1.6 7.8-1.5 3.1-3.5 3.1-3.3 0-10.3-9.1v-1.7q-18.2-18.7-30.2-33.7-12.1-15.1-26.2-31.8-14.1-16.7-14.4-16.7-0.8 0-1.6 1.5-0.8 1.4-1.9 11.3-1.2 10-1.2 23.9 0 15.3 1.5 34.8l1.3 2.3v1.9q0 2.7-0.8 3.3v0.2q0 0.6 0.9 2.9 0.8 2.4 0.8 4.6v1q-2 3.1-6.9 3.1-1.1 0-1.4-1.4-1.5 0.2-4.9 1.5-1-1.5-1-5 0-3.2 1.1-10.9 0.9 0 1.1-0.7 0.3-0.8 0.5-4.2 0.2-3.4 0.5-5.8-1.2-1.5-1.2-2.4l0.2-0.5q1.5-1 1.5-3.5l0.4-9.8-0.2-13.1q0-8.6 0.7-12.1 0.6-3.5 0.6-4.7 0-1.3-0.2-4.1-0.3-2.8-0.3-3.2 0-5.7 0.5-9.2 0.5-3.6 0.5-8.6l-0.7-2.8q0.4-0.9 0.4-3.9 0-3.8-0.2-6 0.6-0.8 1.5-1.7 0.9-0.8 1.3-1.2 0.4-0.4 0.6-0.5 0.2 0 2.2-0.6 1.7 0.2 5.7 6.3 7.1 10.8 14.7 18.2-0.2 0-0.2 0.3 0 0.9 8.9 10.6 8.9 9.8 20.8 24.5l7.4 9.2q3.8 4.7 7.7 9.1 3.8 4.5 9 10 5.2 5.6 6.1 5.9 0.9 0.3 1.3 0.3 0.7 0 0.7-1l-0.2-5.7 0.4-10.6-0.2-14.3q0-8.3 0.3-22.2l0.4-12q0-4.7-1-6-0.2-0.4-0.2-1.1 0-0.8 0.3-2.1 0.2-1.3 0.2-1.8 0-0.7-0.2-1 0.2-1.1 0.2-3.2 0-1.8-0.5-3.1-0.5-1.4-0.5-3.4 0-2.6 2-4.2 2-1.5 5.2-1.5l1.8 0.1h2.4q1.1 0 2.2 0.7zm85.3 59.1q0.7 0.7 0.7 1.9 0 2.4-1.3 3.5 0.2 0.1 0.2 0.5 0 1.3-3.6 1.3h-1.1q-0.5 0-1 0.6-0.5 0.6-0.7 0.6-0.1 0-0.8-0.5-0.7-0.5-2.1-0.7l-1-0.9q-1.8 0.4-3.5 0.4-1.3 0-3.7-0.3-2.3-0.3-3.4-0.3-0.9 0-3.8 0.5-2.9 0.5-5.1 0.5l-8.1-0.4q-6.4 0-11.7 1.2-0.7 0.4-2.2 0.6-1.4 0.2-1.5 1.3-0.1 1.1-1.7 1.8-0.8 3.3-0.8 6.1 0 2.1 1.2 8.1 1.2 6 3.3 8.5 0.5 0.6 7 5.3 4.2 3.1 9.1 4.7 4.9 1.6 11.3 1.6 2.5 0 6.3-0.4l3.4-0.4h5.4q0.8 0 3.1-1.5 2.2-1.5 4.5-1.7 1 2.3 1 4 0 3.8-2.3 6.7-2.4 2.9-5.4 2.9l-1.7-0.4-5.2 0.2h-4.4q-3.2 0-15.4-2.6-12.2-2.6-18-6.9-5.9-4.3-8.6-11-2.7-6.8-2.7-13.1 0-8.6 3.3-17.4 3.3-8.8 7.5-13.7 4.2-4.9 12.7-10.1 0.8-0.4 2.5-1.7 1.7-1.3 3.2-1.3l2.7 0.2q1.8-1.1 6.2-1.9 4.5-0.8 7.3-0.8 5 0 11 3.7 5.9 3.7 7.1 15.4 0.3 2.1 0.7 3.3 0.5 1.3 0.5 1.5 0 0.5-0.4 1.1zm-33.6-17.9q-0.5 0.7-4.7 2.7-2 1.4-3.9 3.3-1.9 1.9-3.7 4.1-1.8 2.2-3.1 3.9-1.4 1.7-2.1 2.6-0.8 0.8-0.8 1.5 0 0.9 1.2 1.3l1 0.4h6.1l28.6-1.1q5.5 0 5.5-4.8 0-5.1-2.1-8.9-2-3.8-10.5-6-1 0-2.8-0.2-1.8-0.2-2.6-0.2-0.8 0-6.1 1.4zm65.4-0.9q15.1-5.4 19.8-6.3 4.8-0.9 5.7-0.9 2.5 0 10.4 3 7.9 2.9 8.8 4.2 0.3 0.6 3.2 4.4 5.2 5.1 5.2 15.4 0 8.5-4.9 17.7-4.8 9.2-11.5 13.2-1 1.3-1.3 2.2-9.9 8.2-12.8 9.6l-2.3 1q-3.7 3.7-5.1 3.7-0.8 0-1.1-0.1-4 2.7-5.9 3.8-1.8 1.2-5 1.7-3.2 0.5-4 1-0.8 0.4-1.3 3.1-0.4 2.7-0.4 8 0 10 0.6 17.8 0.7 7.9 1 9 0.4 1.2 1.1 2.1 0.6 0.9 0.6 1.3 0 0.6-0.8 1.2-0.7 0.5-1.6 1.1-0.9 0.5-1.3 0.5-0.1 0-0.3-0.3-3.9 1.7-6.6 1.7-1 0-2.3-0.9-1.4-0.9-1.4-2.3 0-1.8 1.1-4.8 1.2-3 1.2-4.4l-0.2-3.1 0.6-22.6q0-5.3-0.4-7.5-0.5-2.3-2.4-4.5l0.7-3.8-0.2-0.7q0-0.8 1.2-2.2 1.1-1.5 1.1-4.4l-0.1-4.5v-1.7q0.6-2 0.6-5.2v-10.4q0-1.5 0.3-4.6 0.2-3.2 0.2-4.8 0-8.3-0.5-11-0.4-2.8-1.9-2.8-0.8 0-2.6 0.6-1.8 0.6-2.8 0.6l-0.7-0.1-1.9-2.1q1.2-1.6 5.6-3.7 4.3-2.1 4.3-4.3 0-0.5-0.2-1.8-0.3-1.3-0.3-2.2l0.2-1.3q0-0.6-1.3-2.3l-0.3-3.2q0-3.1 1.3-4.2 1.3-1.2 3.7-1.8 2.4-0.7 3.2-1.2h2.5q2 0 2 1.7l-0.7 2.6q-0.6 2.9-0.6 4.1l0.1 2-0.3 2.8q0 0.7 1 0.9zm0.5 61.1q4.1 1.5 8.3 1.5 2.1 0 3.8-0.3 1.7-0.3 5.8-2.8 4.2-2.5 10-6.7 2.1-1.4 4-3.2 2-1.8 6-8.7 1.8-3.1 3.2-8.5 1.4-5.3 1.4-8.5 0-2.8-1.6-8.3-1.5-5.6-5.7-9.3-4.1-3.6-5.6-3.6h-0.5q-2.1 0-3.8-1.5h-3.2l-5.6-0.2q-9.9 0-14.3 3.3-4.5 3.2-4.5 11.8l0.2 7.3-0.5 35.1q0 1.2 1.2 1.6 1.2 0.4 1.4 1zm119.8-34.2q0 0.6-1.1 1.8-1.1 1.1-1.5 2-0.4 0.9-0.6 4.8-0.3 3.9-0.3 11.5l0.3 11.1q0 0.9-0.7 1.6-0.2 0.9-0.2 3 0 3 1 7.7l0.9 4.4-0.1 4 0.1 3.5q-5.9 5.9-8.8 5.9-0.4 0-1.5-0.6-1.2-0.5-2.1-0.5h-0.5q-0.7-2.3-0.7-4.1 0-4.1 1.9-7.7 0.9-1.2 1.3-1.8 0.5-0.7 0.5-5 0-4.6-1-4.6-0.2 0-1 0.3-0.9 0.3-1.9 0.3h-0.6q-1 0.7-1.2 1.7-1 0-10.8 3.7-4.8 1.7-9.2 1.7-4.8 0-8.7-1.3-3.8-1.3-6.5-3.8-2.6-2.5-3.4-3.7-0.7-1.2-0.7-5.3l0.1-2.1v-0.7q0-8.2 12.8-17.2 12.7-9 23.8-10.9 3-0.5 4.6-1 1.6-0.5 2.8-1.8 1.1-1.2 1.1-5.6 0-14.6-15.5-19.9-0.5-0.2-1.3-0.6-0.9-0.5-1.5-0.5-8 0-13.3 0.6-3 3.4-6.6 3.4-2.7 0-2.7-1.9 0-0.1 1.2-3.5 1.2-3.4 5.7-3.4 5.2-2.8 18.9-2.8 11 0 17 8.5 6.1 8.6 6.1 24.4v1.2q0.7 1 2.3 1.5 1.6 0.5 1.6 1.5zm-16.1 29.1q5.1-7 5.1-12.5 0-3.3-1.6-7.3-1.7-3.9-6.7-3.9-9.7 0-15.8 4.8h-2q-12.7 7-12.7 14.8 0 5.5 5.3 9.2 5.2 3.8 12 3.8 1.9 0 6.9-1.6 5.1-1.5 9.5-5.8zm57.6 10.6q-0.8 2.5-1.3 3.2-0.5 0.6-2.6 0.8-1 1-1.8 1-0.7 0-1.4-1-1.1 1.1-2.8 1.8-6.4-1.8-6.4-4.7v-0.1q1.3 0 1.3-2.4v-1.5l-0.1-2.7q0-0.6 1-3.9 1.2-8.7 1.2-23.5v-16.8l-0.2-6.3 0.2-5.4-1-19 0.7-13.1-0.7-17v-3.2q-1.1-2.8-1.1-5.5l0.4-3.5q0-0.6-0.7-1.6 0-4.4 1.4-7 1.5-2.6 3.6-4 2.1-1.4 4.1-1.4 3.5 0 6.2 6.9-1.9 2.4-3.1 4.7-1.1 2.4-1.1 6.9l0.3 9.4-0.3 23.5 0.1 32.1-0.3 36.5 0.2 1.4q0 1.3-0.7 1.8 1.3 1 1.6 5 0.4 4 1.7 5.9 1.2 2 1.6 2.7zm39.8-100.4q1.3 1 4.3 2.4 2.9 1.4 2.9 3.4 0 1.8-2.1 3.8-2.1 2-4.3 2-2.3 0-5-2.7-2.7-2.7-2.7-3.1 0-1.5 2.3-3.6 2.2-2.2 4.4-2.2zm3.8 104.6q0 0.4-3.6 1.9-3.5 1.4-4.4 1.4h-0.5q-0.9 0-2.1 0.3-1.3 0.4-1.8 0.4-1.6 0-2.8-1.1-1.3-1.1-1.3-1.8 0-1.7 0.7-5.4 0.7-3.6 2.1-5.3 0.6-5.2 0.6-19.3l-0.6-29.8 0.1-5.2q0-0.8-1.3-3-1.4-2.2-1.4-5.4 0-1.9 1-2.7 1.1-0.8 4.8-2.3l4.7-2.1q0.3-0.1 1-0.1 2 0 2 6.4 0 3.6-1.2 18.7-1.3 15.1-1.3 24.6 0 5.3 0.3 10 0.3 4.7 0.6 7.2 0.3 2.5 1.5 4.5 2.3 4.3 2.3 7.7 0.3 0.2 0.6 0.4zm154.3-110q-0.5 4.1-1.8 6.6-1.7 0.3-1.9 0.3-2.8 0-6.8-0.3-3.9-0.3-5.2-0.3-1.1 0-1.6 0.1-1.2-1.6-11.1-1.6l-13.8 0.6h-0.5q-0.7 0-1.5 0.5-1.9 6.9-2.7 19.1-0.8 12.1-0.8 19.3l0.5 9.2-1.1 5.7q-0.5 2.8-0.6 5.5-0.1 2.8-0.1 6.3l1 17.6q0 3.1-0.9 3.6 0.8 0 1.5 4.6 0.8 4.6 1.4 7 0.7 2.3 0.7 2.8 0 1.1-4.4 2.7 0.2 0.2 0.2 0.8 0 0.7-0.5 0.7-0.5 0-1-1-1.6 1.3-2.9 1.8-0.4-1.5-2.2-1.5-0.8 0-2.4 0.2-1.5 0.1-2.2 0.1h-0.7q1.7-0.9 1.2-6-0.2-2.7-0.2-4.2 0-0.1 0.2-0.7 2.8-7.3 2.8-30.6l0.5-37.4q0-18-1.6-22.5 0.3-0.5 0.3-1.2 0-0.9-0.3-1.4-0.4-0.5-1.8-0.7l-5-0.4q-3.3-0.3-4.7-0.3-6.6 0-7.7 2.1-1.4-0.8-2.7-0.8-1.2 0-2.8 0.7-1.6 0.7-4.5 0.7-3.2 0-5.5-1.9-0.2-0.5-0.2-1.3 0-1.1 0.8-3.3 0.8-2.1 0.8-3.5v-0.3q1.1-0.6 2.8-0.6 1.1 0 6.6 0.8 5.4 0.8 11.9 0.8h12.3q4.4 0 8.2-1l0.5-1.1q1 0.4 1.1 0.8l1.4-0.3q0.9 0 2.3 1.2 1.3 1.2 2.1 1.7 0.8 0 3.7-0.4 2.8-0.4 5.4-0.4l13.4-0.3 2.3 0.3h0.7q1.4 0 5-0.4 3.5-0.4 5.7-0.4 5.5 0 6.4 1.9zm53.2 66.1q0 0.6-1.1 1.8-1.1 1.1-1.5 2-0.4 0.9-0.7 4.8-0.2 3.9-0.2 11.6l0.3 11q0 0.9-0.7 1.6-0.2 0.9-0.2 3 0 3.1 1 7.7l0.9 4.4-0.2 4 0.2 3.5q-5.9 5.9-8.8 5.9-0.4 0-1.6-0.5-1.1-0.6-2.1-0.6h-0.5q-0.6-2.3-0.6-4.1 0-4 1.8-7.7 1-1.2 1.4-1.8 0.5-0.7 0.5-5 0-4.6-1-4.6-0.2 0-1.1 0.3-0.8 0.3-1.8 0.3h-0.7q-0.9 0.7-1.2 1.7-1 0-10.7 3.7-4.8 1.7-9.2 1.7-4.9 0-8.7-1.3-3.9-1.3-6.5-3.8-2.6-2.5-3.4-3.7-0.8-1.2-0.8-5.3l0.2-2.1v-0.6q0-8.2 12.7-17.3 12.8-9 23.9-10.9 2.9-0.5 4.6-1 1.6-0.5 2.7-1.8 1.1-1.2 1.1-5.6 0-14.6-15.4-19.9-0.5-0.1-1.4-0.6-0.8-0.5-1.5-0.5-7.9 0-13.3 0.6-2.9 3.4-6.5 3.4-2.7 0-2.7-1.9 0-0.1 1.2-3.5 1.1-3.4 5.7-3.4 5.1-2.8 18.8-2.8 11 0 17.1 8.6 6.1 8.5 6.1 24.3v1.2q0.6 1 2.3 1.5 1.6 0.5 1.6 1.5zm-16.2 29.1q5.2-6.9 5.2-12.4 0-3.4-1.7-7.3-1.7-4-6.7-4-9.6 0-15.7 4.9h-2.1q-12.6 6.9-12.6 14.7 0 5.5 5.2 9.3 5.2 3.7 12.1 3.7 1.8 0 6.9-1.6 5.1-1.5 9.4-5.8zm72.5-26.7q6.4 5.7 6.4 13.7 0 10.5-6.5 19-6.4 8.4-16.6 10.1-2.2 0-6.2 0.3-3.1 1.2-6.4 1.2-4.4 0-7-1.8-2.5-1.8-2.5-7.1 0-1.6 0.1-2.4h0.7q1.6 0 3.1 0.9 1.5 0.8 1.9 0.8l0.5-0.1q2.8 2.7 9.4 2.7 6.3 0 11.5-2.3 5.2-2.2 7.7-7.5 2.5-5.2 2.5-9.4 0-6.1-4.7-10.1-4.6-4-20.8-9-2.5-0.4-3.2-1.1l-3.8-3.3q-3-2.5-3.9-5.1l-0.9-2.5q0-13 7.5-18.4 7.5-5.5 25.9-5.5l4.6 0.3q0.4 0 1.7-0.4 1.3 1.3 1.3 3.7 0 2.7-0.9 5.1-0.9 2.4-1.9 2.8-0.8-1.5-1.7-2.2h-0.2q-0.3 0-0.8 0.3-0.4 0.3-0.7 0.4-3.8-4.4-9.6-4.4-11.1 0-14.6 4.2-3.5 4.3-3.5 9.4 0 7.5 11.9 10.3 8.7 2.1 14.2 4.4 5.5 2.2 5.5 3zm60.9-30.3q0.1 0.5 1 0.8 0.9 0.4 1 0.4h0.9q2.7 0 4.7 1.2 1.9 1.3 1.9 2.8 0 1.6-2.3 3.2l-0.9-1.1q-1.2 2.1-4 2.5l-0.5-0.9-1 0.3q-3.6-1.7-7.3-1.7l-7.8 0.4q-1.6 0-4.9-0.4-2.1 16-2.1 25.1 0 3.4 0.4 7.8 0.3 4.5 1.4 7.4 1.1 2.8 2.1 5.2 1.1 2.4 3.6 4.7 2.6 2.3 4.8 3.3 2.1 1 3.7 2.8 1.6 1.7 8.4 1.7h1.6q1.6 1.3 1.6 2.1 0 0.9-1.2 2.8-1.2 1.9-1.9 3.2-0.7 1.3-2.4 2.8h-0.3q-0.4 0-0.6-0.4-2.9 0-5.1-0.7 0 0.2-0.2 0.2-0.2 0-0.8-0.5-0.6-0.4-1.2-0.7-0.5-1.1-2.3-2-3.7-1.4-6.9-3.9-3.2-2.5-6.5-7.2-3.4-4.7-4.2-8.7-0.9-3.9-1.4-9.4-0.6-5.6-0.6-11.9 0-10.7 1.6-23.5l-1.7-0.6-0.5 1.1h-1.2l-0.3-1.1q-19-0.7-19-3.6 0-1.1 1.2-1.9 1.1-0.9 6.9-0.9h3.2l3.4-0.8q1.9-0.4 3.7-1.5 1.8-1 3.2-2.6 1.3-1.5 2.5-10.9 0.7-5.7 0.7-12.2v-3.4q0-1.5 1.2-4.4 1.1-2.9 2.8-4.5 1.7-1.7 2.4-1.7 1.7 0 3.5 0.6 1.8 0.7 2 0.9 0.3 0.3 0.6 1.3 0.3 1 0.8 1.6v0.3q0 0.3-0.6 0.5-0.6 0.2-0.8 0.3-0.1 0.2-0.3 0.4-0.1 0.1-1.2 4.4-1 4.3-1.8 8.5-0.7 4.3-1.1 8.4-0.4 4.1-0.4 8.1 0 5.7 0.5 6.5 0.5 0.7 1.4 0.7 0.4 0 2.1-0.5 1.6-0.5 3-0.5 0.8 0 1.3 0.1l0.9 2.1q0.5 0.1 1.4 0.1 0.9 0 3.4-1.1 2.6-1.1 4.5-1.4zm81.1 19.8q0.7 0.7 0.7 1.9 0 2.4-1.3 3.6 0.2 0 0.2 0.5 0 1.3-3.6 1.3h-1.1q-0.5 0-1 0.5-0.5 0.6-0.7 0.6-0.1 0-0.8-0.5-0.7-0.5-2.1-0.6l-1-1q-1.8 0.5-3.5 0.5-1.3 0-3.7-0.4-2.3-0.3-3.4-0.3-0.9 0-3.8 0.5-2.9 0.5-5.1 0.5l-8.1-0.3q-6.4 0-11.7 1.1-0.7 0.4-2.2 0.6-1.4 0.2-1.5 1.3-0.1 1.2-1.7 1.8-0.8 3.4-0.8 6.1 0 2.1 1.2 8.1 1.2 6 3.3 8.5 0.5 0.6 7 5.3 4.2 3.1 9.1 4.7 4.9 1.6 11.3 1.6 2.5 0 6.3-0.4l3.4-0.4h5.4q0.8 0 3.1-1.5 2.2-1.5 4.5-1.7 1 2.3 1 4 0 3.9-2.3 6.7-2.4 2.9-5.4 2.9l-1.7-0.3-5.2 0.1h-4.4q-3.2 0-15.4-2.6-12.2-2.6-18-6.9-5.9-4.2-8.6-11-2.7-6.8-2.7-13.1 0-8.5 3.3-17.3 3.3-8.9 7.5-13.7 4.2-4.9 12.7-10.2 0.8-0.4 2.5-1.7 1.7-1.2 3.2-1.2l2.7 0.1q1.8-1.1 6.2-1.9 4.5-0.8 7.3-0.8 5 0 10.9 3.7 6 3.7 7.2 15.4 0.3 2.1 0.7 3.4 0.5 1.2 0.5 1.4 0 0.5-0.4 1.1zm-33.6-17.9q-0.5 0.7-4.7 2.7-2 1.5-3.9 3.4-1.9 1.8-3.7 4-1.8 2.2-3.2 3.9-1.3 1.7-2 2.6-0.8 0.9-0.8 1.5 0 0.9 1.2 1.3l1 0.4h6.1l28.6-1q5.4 0 5.4-4.9 0-5.1-2-8.9-2-3.8-10.5-6-1 0-2.8-0.2-1.8-0.1-2.6-0.1-0.8 0-6.1 1.3zm91.8-45.7q1 0 1 1 0 1-1.7 4.2l-9.4 17.4q-4.7 8.9-5.9 11.6-1.2 2.6-2.4 3.6-1.2 1-2.3 1-1.9 0-1.9-1.6 0-0.5 3.6-8.5l6.8-15.4q3.3-7.5 5.8-10.4 2.6-2.9 6.4-2.9zm-20.3 2.9q-1.8 2.8-3.3 5.8-1.6 2.9-3 6-1.4 3-2.6 6.1-1.3 3.1-2.5 6.3-0.2 0.8-1.4 2.2-0.9 1-1.5 3.2-1.3 4.5-4 4.6-0.2-0.6-0.2-2.2 0-4.1 2.8-11 2.8-6.9 4.4-12.5 1.7-5.6 4.5-8 2.8-2.4 6.8-3.4z"/>
	</g>
</svg>