<?xml version="1.0" encoding="UTF-8"?>
<svg xmlns="http://www.w3.org/2000/svg" xmlns:xlink="http://www.w3.org/1999/xlink" width="75pt" height="59pt" viewBox="0 0 75 59" version="1.1">
<g id="surface1">
<path style=" stroke:none;fill-rule:evenodd;fill:rgb(5.099487%,40.79895%,70.199585%);fill-opacity:1;" d="M 31.46875 22.140625 C 32.175781 22.140625 32.75 22.660156 32.75 23.300781 C 32.75 23.945313 32.175781 24.464844 31.46875 24.464844 C 30.757813 24.464844 30.179688 23.945313 30.179688 23.300781 C 30.179688 22.660156 30.757813 22.140625 31.46875 22.140625 Z M 30.394531 25.605469 L 32.566406 25.605469 L 32.566406 32.855469 L 30.394531 32.855469 L 30.394531 25.605469 "/>
<path style=" stroke:none;fill-rule:evenodd;fill:rgb(95.298767%,41.999817%,12.89978%);fill-opacity:1;" d="M 18.460938 29.6875 C 18.203125 32.082031 15.011719 31.949219 15.445313 28.785156 C 15.578125 27.808594 16.234375 26.890625 17.402344 27.199219 C 18.351563 27.453125 18.585938 28.519531 18.460938 29.6875 Z M 18.441406 31.835938 C 18.675781 34.644531 16.40625 35.066406 14.492188 34.34375 C 14.242188 34.246094 14.007813 34.09375 13.78125 34.015625 L 13.78125 35.84375 C 13.980469 36.109375 15.160156 36.265625 15.578125 36.289063 C 17.488281 36.402344 19.402344 35.945313 20.261719 34.195313 C 20.839844 33.023438 20.699219 31.523438 20.699219 30.109375 C 20.699219 28.597656 20.699219 27.085938 20.699219 25.574219 L 18.449219 25.574219 L 18.445313 26.429688 C 18.21875 26.261719 17.964844 25.605469 16.878906 25.441406 C 16.128906 25.324219 15.320313 25.5 14.777344 25.839844 C 13.773438 26.472656 13.125 27.648438 13.113281 29.335938 C 13.105469 31.007813 13.710938 32.234375 14.804688 32.769531 C 15.40625 33.066406 16.277344 33.152344 16.984375 32.949219 C 17.96875 32.660156 18.21875 32.019531 18.441406 31.835938 "/>
<path style=" stroke:none;fill-rule:evenodd;fill:rgb(5.099487%,40.79895%,70.199585%);fill-opacity:1;" d="M 51.289063 29.652344 C 51.210938 30.179688 51.023438 30.644531 50.753906 30.917969 C 50.484375 31.191406 49.917969 31.40625 49.367188 31.277344 C 48.21875 31.011719 48.214844 29.703125 48.277344 28.785156 C 48.34375 27.800781 49.078125 26.9375 50.203125 27.1875 C 51.175781 27.40625 51.453125 28.542969 51.289063 29.652344 Z M 46.050781 32.886719 L 48.304688 32.886719 L 48.304688 32.03125 C 48.46875 32.125 48.761719 32.832031 49.867188 33.019531 C 50.628906 33.144531 51.457031 32.976563 52.003906 32.625 C 53.007813 31.96875 53.605469 30.835938 53.640625 29.128906 C 53.671875 27.503906 53.101563 26.164063 51.976563 25.65625 C 51.058594 25.242188 49.722656 25.324219 48.925781 26.011719 C 48.667969 26.234375 48.355469 26.648438 48.308594 26.679688 C 48.289063 25.980469 48.355469 22.382813 48.285156 22.074219 L 46.070313 22.074219 C 46.003906 22.367188 46.050781 26.75 46.050781 27.449219 C 46.050781 29.261719 46.050781 31.074219 46.050781 32.886719 "/>
<path style=" stroke:none;fill-rule:evenodd;fill:rgb(5.099487%,40.79895%,70.199585%);fill-opacity:1;" d="M 39.140625 29.652344 C 38.839844 31.816406 36.78125 31.675781 36.265625 30.449219 C 36.085938 30.011719 36.09375 29.304688 36.128906 28.78125 C 36.191406 27.796875 36.9375 26.933594 38.058594 27.1875 C 39.023438 27.410156 39.300781 28.515625 39.140625 29.652344 Z M 33.902344 32.886719 L 36.152344 32.882813 L 36.15625 32.03125 C 36.34375 32.160156 36.304688 32.304688 36.792969 32.652344 C 38.164063 33.628906 41.414063 33.082031 41.488281 29.128906 C 41.523438 27.503906 40.957031 26.152344 39.808594 25.652344 C 38.726563 25.179688 37.222656 25.375 36.460938 26.320313 C 36.382813 26.414063 36.246094 26.621094 36.15625 26.679688 L 36.152344 22.082031 L 33.902344 22.074219 L 33.902344 32.886719 "/>
<path style=" stroke:none;fill-rule:evenodd;fill:rgb(5.099487%,40.79895%,70.199585%);fill-opacity:1;" d="M 58.097656 31.3125 C 56.828125 31.3125 56.363281 30.515625 56.363281 29.234375 C 56.363281 28.003906 56.875 27.152344 58.097656 27.152344 C 59.417969 27.152344 59.664063 28.21875 59.664063 29.335938 C 59.664063 30.425781 59.214844 31.3125 58.097656 31.3125 Z M 54.09375 29.796875 C 54.324219 32.046875 56.097656 33.292969 58.597656 33.027344 C 60.824219 32.789063 62.183594 31.121094 61.945313 28.636719 C 61.5 23.996094 53.527344 24.199219 54.09375 29.796875 "/>
<path style=" stroke:none;fill-rule:evenodd;fill:rgb(95.298767%,41.999817%,12.89978%);fill-opacity:1;" d="M 23.882813 29.6875 C 23.59375 26.894531 25.785156 26.828125 26.59375 27.488281 C 27.386719 28.136719 27.5625 30.933594 25.949219 31.277344 C 25.402344 31.394531 24.757813 31.246094 24.449219 30.964844 C 24.117188 30.660156 23.945313 30.261719 23.882813 29.6875 Z M 25.050781 25.433594 C 22.769531 25.660156 21.371094 27.179688 21.585938 29.703125 C 21.777344 31.996094 23.507813 33.25 25.980469 33.035156 C 28.269531 32.835938 29.621094 31.230469 29.453125 28.742188 C 29.296875 26.492188 27.496094 25.191406 25.050781 25.433594 "/>
<path style=" stroke:none;fill-rule:nonzero;fill:rgb(13.699341%,12.199402%,12.5%);fill-opacity:1;" d="M 50.171875 36.34375 C 50.171875 36.195313 50.21875 36.070313 50.316406 35.964844 C 50.410156 35.855469 50.523438 35.804688 50.65625 35.804688 C 50.789063 35.804688 50.90625 35.855469 51 35.964844 C 51.09375 36.070313 51.140625 36.195313 51.140625 36.34375 C 51.140625 36.492188 51.09375 36.621094 51 36.726563 C 50.90625 36.832031 50.789063 36.882813 50.65625 36.882813 C 50.523438 36.882813 50.410156 36.832031 50.316406 36.726563 C 50.21875 36.621094 50.171875 36.492188 50.171875 36.34375 Z M 53.820313 36.042969 L 53.820313 36.691406 C 53.503906 36.820313 53.214844 36.882813 52.953125 36.882813 C 52.5 36.882813 52.140625 36.746094 51.871094 36.476563 C 51.601563 36.207031 51.464844 35.847656 51.464844 35.402344 C 51.464844 34.96875 51.601563 34.605469 51.875 34.324219 C 52.148438 34.042969 52.492188 33.902344 52.914063 33.902344 C 53.1875 33.902344 53.476563 33.960938 53.78125 34.085938 L 53.78125 34.757813 C 53.558594 34.628906 53.339844 34.566406 53.125 34.566406 C 52.882813 34.566406 52.691406 34.640625 52.542969 34.789063 C 52.398438 34.941406 52.328125 35.144531 52.328125 35.394531 C 52.328125 35.648438 52.398438 35.855469 52.539063 36.011719 C 52.679688 36.167969 52.867188 36.242188 53.09375 36.242188 C 53.265625 36.242188 53.507813 36.175781 53.820313 36.042969 Z M 55.507813 33.902344 C 55.910156 33.902344 56.253906 34.03125 56.53125 34.296875 C 56.8125 34.558594 56.953125 34.925781 56.953125 35.394531 C 56.953125 35.867188 56.808594 36.234375 56.523438 36.492188 C 56.238281 36.753906 55.902344 36.882813 55.507813 36.882813 C 55.082031 36.882813 54.734375 36.746094 54.464844 36.46875 C 54.195313 36.191406 54.058594 35.832031 54.058594 35.390625 C 54.058594 34.941406 54.195313 34.578125 54.472656 34.308594 C 54.746094 34.035156 55.09375 33.902344 55.507813 33.902344 Z M 55.511719 36.347656 C 55.894531 36.347656 56.089844 36.023438 56.089844 35.371094 C 56.089844 34.753906 55.894531 34.441406 55.511719 34.441406 C 55.324219 34.441406 55.179688 34.523438 55.078125 34.6875 C 54.972656 34.851563 54.917969 35.085938 54.917969 35.394531 C 54.917969 36.03125 55.117188 36.347656 55.511719 36.347656 Z M 58.144531 33.960938 L 58.144531 34.328125 C 58.417969 34.042969 58.714844 33.902344 59.035156 33.902344 C 59.476563 33.902344 59.78125 34.101563 59.957031 34.507813 C 60.269531 34.101563 60.605469 33.902344 60.96875 33.902344 C 61.265625 33.902344 61.503906 34 61.691406 34.203125 C 61.878906 34.402344 61.972656 34.660156 61.972656 34.984375 L 61.972656 36.820313 L 61.164063 36.820313 L 61.164063 35.144531 C 61.164063 34.941406 61.121094 34.785156 61.039063 34.671875 C 60.957031 34.558594 60.839844 34.503906 60.691406 34.503906 C 60.457031 34.503906 60.246094 34.664063 60.058594 34.988281 L 60.058594 36.820313 L 59.25 36.820313 L 59.25 35.125 C 59.25 34.925781 59.207031 34.769531 59.113281 34.664063 C 59.027344 34.554688 58.90625 34.503906 58.757813 34.503906 C 58.546875 34.503906 58.34375 34.632813 58.144531 34.898438 L 58.144531 36.820313 L 57.335938 36.820313 L 57.335938 33.960938 L 58.144531 33.960938 "/>
<path style=" stroke:none;fill-rule:evenodd;fill:rgb(5.099487%,40.79895%,70.199585%);fill-opacity:1;" d="M 43.648438 22.140625 C 44.359375 22.140625 44.933594 22.660156 44.933594 23.300781 C 44.933594 23.945313 44.359375 24.464844 43.648438 24.464844 C 42.941406 24.464844 42.363281 23.945313 42.363281 23.300781 C 42.363281 22.660156 42.941406 22.140625 43.648438 22.140625 Z M 42.578125 25.605469 L 44.746094 25.605469 L 44.746094 32.855469 L 42.578125 32.855469 L 42.578125 25.605469 "/>
</g>
</svg>
